<svg id="레이어_1" data-name="레이어 1" xmlns="http://www.w3.org/2000/svg" viewBox="0 0 500 500"><defs><style>.cls-1{fill:none;stroke:#000;stroke-linecap:round;stroke-linejoin:round;stroke-width:14px;}</style></defs><path class="cls-1" d="M167.11833,181.93241c-14.2905-18.85777-19.5943-26.15549-27.198-46.15192s1.33682-43.82374,14.21386-60.39768C164.84167,61.60124,180.726,53.729,196.649,48.34668c33.12077-11.19549,71.40484-12.6888,100.527,7.65245S340.12393,123.345,318.974,152.97985c25.63844-10.40957,54.24335-13.74175,80.66462-5.92317s50.27732,27.5435,61.26224,54.56738c5.87674,14.45734,7.84667,31.66492,1.3849,45.83-6.974,15.28782-22.19275,24.11113-37.211,29.468a147.071,147.071,0,0,1-73.10112,6.63809c28.602,12.41619,59.80634,27.42689,72.47961,57.69379,13.86831,33.1209-1.97506,75.13617-30.79114,94.046s-66.68405,16.92535-97.08848,1.15921c-27.31912-14.16624-45.51122-68.30559-52.00994-100.19065-.35707,16.42533-5.733,61.42541-11.57762,76.60275-12.06877,31.34014-45.82939,48.54864-77.30109,46.77112S95.1736,440.35664,70.87485,418.752c-16.15039-14.35972-31.83317-33.41993-31.16055-55.95782.59115-19.8076,14.26408-36.97353,30.54678-46.21981S105.2192,304.52976,123.4626,301.876c-25.41017-1.67515-52.21306-3.84318-73.22787-19.312s-32.662-49.18561-17.36268-71.09023c6.16443-8.82582,15.535-14.33117,24.89231-18.85467C98.77852,172.79215,122.98073,172.71911,167.11833,181.93241Z"/><path class="cls-1" d="M219.959,202.53231c-13.21808,2.48447-28.10028,12.97408-36.34441,23.40683-8.00532,10.13117-9.96826,24.20937-3.3165,35.58923,5.17741,8.85751,14.21149,14.96993,23.876,18.41372a117.56391,117.56391,0,0,0,41.7808,6.3718c15.44351-.51685,36.71053-6.61149,39.2926-24.4991,1.107-7.66886-2.065-15.32355-6.0684-21.95768a99.52071,99.52071,0,0,0-31.23223-31.38992C238.0304,202.37058,228.74816,200.88035,219.959,202.53231Z"/></svg>