<svg id="레이어_1" data-name="레이어 1" xmlns="http://www.w3.org/2000/svg" viewBox="0 0 500 500"><defs><style>.cls-1{fill:none;stroke:#000;stroke-linecap:round;stroke-linejoin:round;stroke-width:14px;}</style></defs><polygon class="cls-1" points="127.891 208.716 104.156 229.636 112.805 257.166 146.468 257.166 158.869 226.015 127.891 208.716"/><polygon class="cls-1" points="279.063 190.84 240.884 201.415 248.307 237.136 282.365 252.828 306.064 242.049 309.086 209.89 279.063 190.84"/><polygon class="cls-1" points="213.403 311.797 183.186 332.517 192.683 359.712 218.151 370.503 240.698 336.834 213.403 311.797"/><polygon class="cls-1" points="363.631 289.135 337.321 301.737 340.753 329.28 370.537 334.459 383.467 307.697 363.631 289.135"/><polygon class="cls-1" points="197.777 106.173 180.345 112.325 174.608 135.258 200.994 141.979 211.942 119.316 197.777 106.173"/><path class="cls-1" d="M293.45858,32.8028c-3.62521,2.06-13.677.47447-17.941.6178-7.096.23853-14.19235.47646-21.28421.81951-13.58606.65719-27.17488,1.62838-40.64554,3.56194-23.9731,3.44108-45.97094,9.91165-66.95176,22.06A224.80222,224.80222,0,0,0,58.0523,154.74137C27.14653,217.781,24.46645,291.15627,63.77972,351.2916c31.78376,48.61782,86.99792,89.7316,143.75919,103.02043,45.66463,10.69091,95.55514,3.8434,137.065-17.75525a202.13953,202.13953,0,0,0,78.17127-72.75094c21.00782-34.02148,27.65947-75.96135,30.82094-115.18048,1.49344-18.52675,2.17145-37.30367-1.19728-55.5827-8.56632,12.00957-22.779,21.51885-37.34937,19.2129s-25.69272-20.72054-17.23229-32.80493a42.49454,42.49454,0,0,1-44.46839,2.76178c-5.24765-2.89569-10.01268-7.16892-12.08272-12.79366-5.15384-14.00414,7.6878-27.65394,19.24413-37.09477-12.20965,2.11384-24.83733,4.2174-36.87276,1.26914s-23.40634-12.34806-24.58878-24.6828c-1.71134-17.852,16.71677-30.29,32.66711-38.48813-12.44843.61525-25.95878.93781-36.1086-6.29564S282.62228,38.96035,293.45858,32.8028Z"/></svg>