<svg id="레이어_1" data-name="레이어 1" xmlns="http://www.w3.org/2000/svg" viewBox="0 0 500 500"><defs><style>.cls-1{fill:none;stroke:#000;stroke-linecap:round;stroke-linejoin:round;stroke-width:14px;}</style></defs><path class="cls-1" d="M467.90081,363.2419c-5.70673-.115-12.10307.115-18.15438-.03834-.61294-3.10233-1.53211-6.93238-1.915-8.34947a481.11186,481.11186,0,0,0-38.53025-99.88767c-15.665-30.14244-35.88752-59.8253-66.03019-75.41362-12.10285-6.243-25.27821-9.99636-38.56836-12.94557a223.67971,223.67971,0,0,0-37.03671-5.36192c-13.97953-.72772-27.95929.34457-41.90072,1.76167-17.73313,1.83858-35.50436,4.25153-52.50978,9.49867a163.12992,163.12992,0,0,0-90.54234,70.7025c-19.76317,32.59373-27.07846,77.59677-20.8738,115.43764-8.00467-.19145-16.0479-.42124-24.05257-.766C32.1564,319.656,26.56445,280.5511,34.1481,242.67212a171.112,171.112,0,0,1,53.046-92.99363A139.81319,139.81319,0,0,1,119.29,127.7324c13.90309-6.77925,28.9168-10.76242,43.96885-14.286,32.0577-7.46864,64.91933-12.86914,97.81953-11.26035,32.9,1.60856,66.02995,10.60907,92.80194,29.79764,20.529,14.74558,36.53855,34.81522,52.28022,54.61649,9.00052,11.37513,18.03937,22.75048,25.96759,34.93A229.07663,229.07663,0,0,1,467.90081,363.2419Z"/><path class="cls-1" d="M449.74643,363.20356c-10.188-.19146-20.644-.42125-30.87016-.651-5.01735-31.94269-16.431-69.05585-32.51729-95.29157-18.92043-30.75538-53.12272-50.05873-88.62708-56.723-35.5046-6.6259-72.273-1.80024-107.24129,7.35362-14.05644,3.67693-28.0743,8.08134-40.82842,15.09039-41.28778,22.71215-63.8468,79.77993-54.0419,126.04695-11.26034.0381-22.52069-.115-33.781-.38315-6.20466-37.84087,1.11063-82.84391,20.8738-115.43764a163.12992,163.12992,0,0,1,90.54234-70.7025c17.00542-5.24714,34.77665-7.66009,52.50978-9.49867,13.94143-1.4171,27.92119-2.48939,41.90072-1.76167a223.67971,223.67971,0,0,1,37.03671,5.36192c13.29015,2.94921,26.46551,6.70258,38.56836,12.94557,30.14267,15.58832,50.3652,45.27118,66.03019,75.41362a481.11186,481.11186,0,0,1,38.53025,99.88767C448.21432,356.27118,449.13349,360.10123,449.74643,363.20356Z"/><path class="cls-1" d="M418.87627,362.55252c-7.12406-.15312-14.17122-.30647-20.91213-.45959a12.47284,12.47284,0,0,1-5.4386-.95751c-3.60026-1.915-4.36631-6.66425-4.86424-10.686-6.70258-51.89708-47.99059-97.55116-98.93015-109.42421-17.92459-4.21319-36.57689-4.51966-54.92273-3.06422-31.71289,2.48962-64.80455,11.10722-86.98043,33.896-21.793,22.36734-29.72119,57.18256-19.76293,86.78874q-15.74179.40221-31.44477.38315c-9.8049-46.267,12.75412-103.3348,54.0419-126.04695,12.75412-7.00905,26.772-11.41346,40.82842-15.09039,34.96834-9.15386,71.73669-13.97952,107.24129-7.35362,35.50436,6.66424,69.70665,25.96759,88.62708,56.723C402.44522,293.49667,413.85892,330.60983,418.87627,362.55252Z"/></svg>